<?xml version="1.0" encoding="UTF-8"?>
<svg width="128" height="128" viewBox="0 0 128 128"
  xmlns="http://www.w3.org/2000/svg">
  <!-- Background circle -->
  <circle cx="64" cy="64" r="60" fill="#4a154b" />

  <!-- Nuclear explosion -->
  <g transform="translate(64 64)">
    <!-- Central explosion -->
    <circle cx="0" cy="0" r="20" fill="#e01e5a" />
    <circle cx="0" cy="0" r="15" fill="#f4b400" />
    <circle cx="0" cy="0" r="10" fill="#ffffff" />

    <!-- Explosion rays -->
    <g stroke="#e01e5a" stroke-width="4">
      <!-- Long rays -->
      <line x1="0" y1="-30" x2="0" y2="-50" />
      <line x1="30" y1="0" x2="50" y2="0" />
      <line x1="0" y1="30" x2="0" y2="50" />
      <line x1="-30" y1="0" x2="-50" y2="0" />

      <!-- Diagonal rays -->
      <line x1="21" y1="-21" x2="35" y2="-35" />
      <line x1="21" y1="21" x2="35" y2="35" />
      <line x1="-21" y1="21" x2="-35" y2="35" />
      <line x1="-21" y1="-21" x2="-35" y2="-35" />

      <!-- Medium rays -->
      <line x1="10" y1="-28" x2="15" y2="-42" />
      <line x1="28" y1="-10" x2="42" y2="-15" />
      <line x1="28" y1="10" x2="42" y2="15" />
      <line x1="10" y1="28" x2="15" y2="42" />
      <line x1="-10" y1="28" x2="-15" y2="42" />
      <line x1="-28" y1="10" x2="-42" y2="15" />
      <line x1="-28" y1="-10" x2="-42" y2="-15" />
      <line x1="-10" y1="-28" x2="-15" y2="-42" />
    </g>

    <!-- Slack logo hint (stylized S) -->
    <path d="M-5,-5 C-5,-8 -3,-10 0,-10 C3,-10 5,-8 5,-5 C5,-2 3,0 0,0 C-3,0 -5,2 -5,5 C-5,8 -3,10 0,10 C3,10 5,8 5,5" stroke="#ffffff" stroke-width="2.5" fill="none" />
  </g>
</svg> 